<mxfile host="app.diagrams.net" modified="2024-06-11T00:55:32.221Z" agent="Mozilla/5.0 (Windows NT 10.0; Win64; x64) AppleWebKit/537.36 (KHTML, like Gecko) Chrome/125.0.0.0 Safari/537.36" etag="HenBzFfb9sPWF1k0zXuy" version="24.5.2" type="device">
  <diagram name="PÃ¡gina-1" id="DPYthDOZoothY9SxADZ-">
    <mxGraphModel dx="1114" dy="558" grid="1" gridSize="10" guides="1" tooltips="1" connect="1" arrows="1" fold="1" page="1" pageScale="1" pageWidth="827" pageHeight="1169" math="0" shadow="0">
      <root>
        <mxCell id="0" />
        <mxCell id="1" parent="0" />
        <mxCell id="YeBUtFlbjjo5_0TzaPDu-1" value="" style="ellipse;html=1;shape=startState;fillColor=#000000;strokeColor=#ff0000;" parent="1" vertex="1">
          <mxGeometry x="20" y="30" width="30" height="30" as="geometry" />
        </mxCell>
        <mxCell id="YeBUtFlbjjo5_0TzaPDu-2" value="" style="edgeStyle=orthogonalEdgeStyle;html=1;verticalAlign=bottom;endArrow=open;endSize=8;strokeColor=#ff0000;rounded=0;" parent="1" source="YeBUtFlbjjo5_0TzaPDu-1" target="YeBUtFlbjjo5_0TzaPDu-3" edge="1">
          <mxGeometry relative="1" as="geometry">
            <mxPoint x="399" y="110" as="targetPoint" />
          </mxGeometry>
        </mxCell>
        <mxCell id="YeBUtFlbjjo5_0TzaPDu-3" value="select the type of product and department to which it belongs" style="rounded=1;whiteSpace=wrap;html=1;arcSize=40;fontColor=#000000;fillColor=#ffffc0;strokeColor=#000000;" parent="1" vertex="1">
          <mxGeometry x="100" width="151" height="90" as="geometry" />
        </mxCell>
        <mxCell id="YeBUtFlbjjo5_0TzaPDu-4" value="" style="edgeStyle=orthogonalEdgeStyle;html=1;verticalAlign=bottom;endArrow=open;endSize=8;strokeColor=#000000;rounded=0;" parent="1" source="YeBUtFlbjjo5_0TzaPDu-3" target="YeBUtFlbjjo5_0TzaPDu-5" edge="1">
          <mxGeometry relative="1" as="geometry">
            <mxPoint x="399" y="220" as="targetPoint" />
          </mxGeometry>
        </mxCell>
        <mxCell id="YeBUtFlbjjo5_0TzaPDu-5" value="enter product details" style="rounded=1;whiteSpace=wrap;html=1;arcSize=40;fontColor=#000000;fillColor=#ffffc0;strokeColor=#000000;" parent="1" vertex="1">
          <mxGeometry x="294" y="25" width="120" height="40" as="geometry" />
        </mxCell>
        <mxCell id="YeBUtFlbjjo5_0TzaPDu-6" value="" style="edgeStyle=orthogonalEdgeStyle;html=1;verticalAlign=bottom;endArrow=open;endSize=8;strokeColor=#000000;rounded=0;" parent="1" source="YeBUtFlbjjo5_0TzaPDu-5" target="YeBUtFlbjjo5_0TzaPDu-7" edge="1">
          <mxGeometry relative="1" as="geometry">
            <mxPoint x="399" y="360" as="targetPoint" />
          </mxGeometry>
        </mxCell>
        <mxCell id="YeBUtFlbjjo5_0TzaPDu-7" value="add product images" style="rounded=1;whiteSpace=wrap;html=1;arcSize=40;fontColor=#000000;fillColor=#ffffc0;strokeColor=#000000;" parent="1" vertex="1">
          <mxGeometry x="440" y="25" width="120" height="40" as="geometry" />
        </mxCell>
        <mxCell id="YeBUtFlbjjo5_0TzaPDu-8" value="" style="edgeStyle=orthogonalEdgeStyle;html=1;verticalAlign=bottom;endArrow=open;endSize=8;strokeColor=#000000;rounded=0;" parent="1" source="YeBUtFlbjjo5_0TzaPDu-7" target="YeBUtFlbjjo5_0TzaPDu-9" edge="1">
          <mxGeometry relative="1" as="geometry">
            <mxPoint x="399" y="380" as="targetPoint" />
          </mxGeometry>
        </mxCell>
        <mxCell id="YeBUtFlbjjo5_0TzaPDu-9" value="configure shipping options" style="rounded=1;whiteSpace=wrap;html=1;arcSize=40;fontColor=#000000;fillColor=#ffffc0;strokeColor=#000000;" parent="1" vertex="1">
          <mxGeometry x="620" y="25" width="120" height="40" as="geometry" />
        </mxCell>
        <mxCell id="YeBUtFlbjjo5_0TzaPDu-10" value="" style="edgeStyle=orthogonalEdgeStyle;html=1;verticalAlign=bottom;endArrow=open;endSize=8;strokeColor=#000000;rounded=0;" parent="1" source="YeBUtFlbjjo5_0TzaPDu-9" target="YeBUtFlbjjo5_0TzaPDu-11" edge="1">
          <mxGeometry relative="1" as="geometry">
            <mxPoint x="400" y="490" as="targetPoint" />
          </mxGeometry>
        </mxCell>
        <mxCell id="YeBUtFlbjjo5_0TzaPDu-19" style="edgeStyle=orthogonalEdgeStyle;rounded=0;orthogonalLoop=1;jettySize=auto;html=1;" parent="1" source="YeBUtFlbjjo5_0TzaPDu-11" target="YeBUtFlbjjo5_0TzaPDu-17" edge="1">
          <mxGeometry relative="1" as="geometry" />
        </mxCell>
        <mxCell id="YeBUtFlbjjo5_0TzaPDu-11" value="set price" style="rounded=1;whiteSpace=wrap;html=1;arcSize=40;fontColor=#000000;fillColor=#ffffc0;strokeColor=#000000;" parent="1" vertex="1">
          <mxGeometry x="619" y="110" width="120" height="40" as="geometry" />
        </mxCell>
        <mxCell id="YeBUtFlbjjo5_0TzaPDu-13" value="publish the product" style="rounded=1;whiteSpace=wrap;html=1;arcSize=40;fontColor=#000000;fillColor=#ffffc0;strokeColor=#000000;" parent="1" vertex="1">
          <mxGeometry x="294" y="110" width="120" height="40" as="geometry" />
        </mxCell>
        <mxCell id="YeBUtFlbjjo5_0TzaPDu-14" value="" style="edgeStyle=orthogonalEdgeStyle;html=1;verticalAlign=bottom;endArrow=open;endSize=8;strokeColor=#000000;rounded=0;" parent="1" source="YeBUtFlbjjo5_0TzaPDu-13" target="YeBUtFlbjjo5_0TzaPDu-15" edge="1">
          <mxGeometry relative="1" as="geometry">
            <mxPoint x="399" y="730" as="targetPoint" />
          </mxGeometry>
        </mxCell>
        <mxCell id="YeBUtFlbjjo5_0TzaPDu-15" value="" style="ellipse;html=1;shape=endState;fillColor=#000000;strokeColor=#ff0000;" parent="1" vertex="1">
          <mxGeometry x="339" y="190" width="30" height="30" as="geometry" />
        </mxCell>
        <mxCell id="YeBUtFlbjjo5_0TzaPDu-17" value="review the post" style="rounded=1;whiteSpace=wrap;html=1;arcSize=40;fontColor=#000000;fillColor=#ffffc0;strokeColor=#000000;" parent="1" vertex="1">
          <mxGeometry x="469" y="110" width="120" height="40" as="geometry" />
        </mxCell>
        <mxCell id="YeBUtFlbjjo5_0TzaPDu-18" value="" style="edgeStyle=orthogonalEdgeStyle;html=1;verticalAlign=bottom;endArrow=open;endSize=8;strokeColor=#000000;rounded=0;" parent="1" source="YeBUtFlbjjo5_0TzaPDu-17" target="YeBUtFlbjjo5_0TzaPDu-13" edge="1">
          <mxGeometry relative="1" as="geometry">
            <mxPoint x="220" y="610" as="targetPoint" />
          </mxGeometry>
        </mxCell>
      </root>
    </mxGraphModel>
  </diagram>
</mxfile>
